<?xml version="1.0" encoding="utf-8"?>
<!-- Svg Vector Icons : http://www.onlinewebfonts.com/icon -->
<!DOCTYPE svg PUBLIC "-//W3C//DTD SVG 1.1//EN" "http://www.w3.org/Graphics/SVG/1.1/DTD/svg11.dtd">
<svg version="1.1" xmlns="http://www.w3.org/2000/svg" x="0px" y="0px" viewBox="0 0 256 256"
     enable-background="new 0 0 256 256" xml:space="preserve">
<metadata> Svg Vector Icons : http://www.onlinewebfonts.com/icon </metadata>
<g><g><path fill="#ffffff"  d="M135.1,27.3l2.8,18.3l1.6,10.5l10,3.3c4.1,1.3,7.9,2.9,11.4,4.6l9.6,4.9l8.6-6.5l14.3-10.8c4.8,4.6,8.2,8,10.7,10.6c-0.6,0.8-1.4,1.8-2.2,2.8c-4,5.2-6.9,8.8-8.8,11.5L187,85l4.9,9.3c2.2,4.2,3.9,8.3,5.1,12.2l3.2,10.3l10.6,1.6l18,2.7v14.3l-18.1,2.8l-10.2,1.5l-3.4,9.7c-1.7,4.7-3.3,8.6-4.9,11.5l-5.1,9.4l6.1,8.7c2.8,4,6.6,9,11.3,14.9c-2,2.1-4.5,4.8-7.9,8.1c-1,1-2,1.9-2.8,2.7l-14.1-11.1l-8.8-6.8l-9.8,5.1c-3.6,1.9-7.4,3.5-11.2,4.7l-10.6,3.4l-1.3,11c-0.9,7.9-1.7,13.6-2.4,17.7h-14.7l-2.8-18.3l-1.6-10.5l-10-3.3c-4.2-1.4-8-2.9-11.4-4.7l-9.6-4.9l-8.7,6.5l-14.2,10.8c-4.8-4.5-8.3-8-10.8-10.6c0.6-0.8,1.4-1.8,2.2-2.8c4-5.2,6.8-8.8,8.7-11.5l6.3-8.7l-5.1-9.5c-2.2-4-3.8-8-4.9-11.8l-3-10.7l-11-1.6l-17.9-2.6v-14.2l18.1-2.7l10.7-1.6l3.2-10.4c1.1-3.6,2.7-7.3,4.7-11l5.1-9.4l-6.1-8.7C59.7,72.5,56,67.6,51.5,62c1.9-2.1,4.5-4.7,7.8-7.9c1-1,2-1.9,2.8-2.7l14.3,11.1l8.8,6.8l9.8-5.2c3.6-1.9,7.3-3.4,11.2-4.7l10.6-3.4l1.3-11c0.9-7.9,1.7-13.5,2.4-17.7L135.1,27.3 M145,10.1h-34.1c-3,0-4.8,1.4-5.5,4.3c-1.3,5.1-2.8,14.6-4.5,28.6c-4.8,1.5-9.5,3.5-14,5.9L65.7,32.3c-1.3-1-2.6-1.5-4-1.5c-2.3,0-7.1,3.7-14.5,11c-7.4,7.3-12.5,12.8-15.1,16.5c-0.9,1.3-1.4,2.5-1.4,3.5c0,1.2,0.5,2.5,1.5,3.7c6.9,8.3,12.4,15.4,16.4,21.2c-2.6,4.7-4.6,9.4-6,14.1l-28.6,4.3c-1.1,0.2-2.1,0.9-2.9,2c-0.8,1.1-1.2,2.3-1.2,3.5v34.1c0,1.3,0.4,2.5,1.2,3.6c0.8,1.1,1.9,1.7,3.2,1.9l28.1,4.1c1.4,5,3.5,10.1,6.3,15.2c-1.9,2.6-4.6,6.2-8.3,10.8c-3.7,4.6-6.3,8-7.8,10.2c-0.8,1.1-1.2,2.3-1.2,3.5c0,1.3,0.3,2.5,1.1,3.5c4,5.5,12.4,14.1,25.4,25.8c1.1,1.1,2.4,1.7,3.8,1.7c1.5,0,2.8-0.4,3.8-1.3l21.7-16.4c4.2,2.2,8.8,4,13.8,5.7l4.3,28.3c0.1,1.3,0.7,2.4,1.8,3.3c1.1,0.9,2.3,1.3,3.8,1.3H145c3,0,4.8-1.4,5.5-4.3c1.3-5.1,2.8-14.6,4.4-28.6c4.8-1.5,9.5-3.5,14-5.8l21.2,16.6c1.4,0.9,2.8,1.4,4,1.4c2.2,0,7.1-3.6,14.4-10.9c7.4-7.2,12.5-12.8,15.2-16.6c0.9-1,1.4-2.2,1.4-3.5c0-1.3-0.5-2.6-1.5-3.8c-7.4-9-12.8-16.1-16.4-21.2c2.1-3.8,4-8.5,6-14l28.4-4.3c1.2-0.2,2.3-0.9,3.1-2c0.8-1.1,1.2-2.3,1.2-3.6v-34c0-1.3-0.4-2.5-1.2-3.6c-0.8-1.1-1.9-1.7-3.2-1.9l-28.1-4.3c-1.5-4.9-3.6-9.9-6.3-15c1.9-2.6,4.6-6.2,8.3-10.8c3.7-4.7,6.3-8,7.9-10.2c0.8-1.2,1.2-2.3,1.2-3.6c0-1.4-0.4-2.5-1.1-3.4c-3.7-5.2-12.2-13.9-25.4-26.1c-1.2-1-2.5-1.5-3.8-1.5c-1.5,0-2.8,0.5-3.7,1.3l-21.8,16.5c-4.2-2.1-8.8-4-13.8-5.7l-4.3-28.3c-0.1-1.3-0.7-2.4-1.8-3.3C147.7,10.5,146.5,10.1,145,10.1L145,10.1z"/><path fill="#ffffff"  d="M128,103.5c13.5,0,24.5,11,24.5,24.5c0,13.5-11,24.5-24.5,24.5c-13.5,0-24.5-11-24.5-24.5S114.5,103.5,128,103.5 M128,86.3c-23,0-41.7,18.7-41.7,41.7c0,23,18.7,41.7,41.7,41.7c23,0,41.7-18.7,41.7-41.7C169.7,105,151,86.3,128,86.3L128,86.3z"/></g></g>
</svg>